<svg width="18" height="25" viewBox="0 0 18 25" fill="none" xmlns="http://www.w3.org/2000/svg">
<path d="M6 5.00245C5.73478 5.00245 5.48043 5.10781 5.29289 5.29534C5.10536 5.48288 5 5.73723 5 6.00245C5 6.26767 5.10536 6.52202 5.29289 6.70956C5.48043 6.89709 5.73478 7.00245 6 7.00245C6.26522 7.00245 6.51957 6.89709 6.70711 6.70956C6.89464 6.52202 7 6.26767 7 6.00245C7 5.73723 6.89464 5.48288 6.70711 5.29534C6.51957 5.10781 6.26522 5.00245 6 5.00245ZM3.17 5.00245C3.3766 4.41692 3.75974 3.90988 4.2666 3.55124C4.77346 3.1926 5.37909 3 6 3C6.62091 3 7.22654 3.1926 7.7334 3.55124C8.24026 3.90988 8.6234 4.41692 8.83 5.00245H16C16.2652 5.00245 16.5196 5.10781 16.7071 5.29534C16.8946 5.48288 17 5.73723 17 6.00245C17 6.26767 16.8946 6.52202 16.7071 6.70956C16.5196 6.89709 16.2652 7.00245 16 7.00245H8.83C8.6234 7.58798 8.24026 8.09502 7.7334 8.45366C7.22654 8.81231 6.62091 9.0049 6 9.0049C5.37909 9.0049 4.77346 8.81231 4.2666 8.45366C3.75974 8.09502 3.3766 7.58798 3.17 7.00245H2C1.73478 7.00245 1.48043 6.89709 1.29289 6.70956C1.10536 6.52202 1 6.26767 1 6.00245C1 5.73723 1.10536 5.48288 1.29289 5.29534C1.48043 5.10781 1.73478 5.00245 2 5.00245H3.17ZM12 11.0025C11.7348 11.0025 11.4804 11.1078 11.2929 11.2953C11.1054 11.4829 11 11.7372 11 12.0025C11 12.2677 11.1054 12.522 11.2929 12.7096C11.4804 12.8971 11.7348 13.0025 12 13.0025C12.2652 13.0025 12.5196 12.8971 12.7071 12.7096C12.8946 12.522 13 12.2677 13 12.0025C13 11.7372 12.8946 11.4829 12.7071 11.2953C12.5196 11.1078 12.2652 11.0025 12 11.0025ZM9.17 11.0025C9.3766 10.4169 9.75974 9.90988 10.2666 9.55124C10.7735 9.1926 11.3791 9 12 9C12.6209 9 13.2265 9.1926 13.7334 9.55124C14.2403 9.90988 14.6234 10.4169 14.83 11.0025H16C16.2652 11.0025 16.5196 11.1078 16.7071 11.2953C16.8946 11.4829 17 11.7372 17 12.0025C17 12.2677 16.8946 12.522 16.7071 12.7096C16.5196 12.8971 16.2652 13.0025 16 13.0025H14.83C14.6234 13.588 14.2403 14.095 13.7334 14.4537C13.2265 14.8123 12.6209 15.0049 12 15.0049C11.3791 15.0049 10.7735 14.8123 10.2666 14.4537C9.75974 14.095 9.3766 13.588 9.17 13.0025H2C1.73478 13.0025 1.48043 12.8971 1.29289 12.7096C1.10536 12.522 1 12.2677 1 12.0025C1 11.7372 1.10536 11.4829 1.29289 11.2953C1.48043 11.1078 1.73478 11.0025 2 11.0025H9.17ZM6 17.0025C5.73478 17.0025 5.48043 17.1078 5.29289 17.2953C5.10536 17.4829 5 17.7372 5 18.0025C5 18.2677 5.10536 18.522 5.29289 18.7096C5.48043 18.8971 5.73478 19.0025 6 19.0025C6.26522 19.0025 6.51957 18.8971 6.70711 18.7096C6.89464 18.522 7 18.2677 7 18.0025C7 17.7372 6.89464 17.4829 6.70711 17.2953C6.51957 17.1078 6.26522 17.0025 6 17.0025ZM3.17 17.0025C3.3766 16.4169 3.75974 15.9099 4.2666 15.5512C4.77346 15.1926 5.37909 15 6 15C6.62091 15 7.22654 15.1926 7.7334 15.5512C8.24026 15.9099 8.6234 16.4169 8.83 17.0025H16C16.2652 17.0025 16.5196 17.1078 16.7071 17.2953C16.8946 17.4829 17 17.7372 17 18.0025C17 18.2677 16.8946 18.522 16.7071 18.7096C16.5196 18.8971 16.2652 19.0025 16 19.0025H8.83C8.6234 19.588 8.24026 20.095 7.7334 20.4537C7.22654 20.8123 6.62091 21.0049 6 21.0049C5.37909 21.0049 4.77346 20.8123 4.2666 20.4537C3.75974 20.095 3.3766 19.588 3.17 19.0025H2C1.73478 19.0025 1.48043 18.8971 1.29289 18.7096C1.10536 18.522 1 18.2677 1 18.0025C1 17.7372 1.10536 17.4829 1.29289 17.2953C1.48043 17.1078 1.73478 17.0025 2 17.0025H3.17Z" fill="black"/>
</svg>
