<svg width="40" height="40" viewBox="0 0 40 40" fill="none" xmlns="http://www.w3.org/2000/svg">
<path d="M12 20.3217C12 19.9901 12.1317 19.6722 12.3661 19.4378C12.6005 19.2034 12.9185 19.0717 13.25 19.0717H19.0717V13.25C19.0717 12.9185 19.2034 12.6005 19.4378 12.3661C19.6722 12.1317 19.9901 12 20.3217 12C20.6532 12 20.9711 12.1317 21.2055 12.3661C21.44 12.6005 21.5717 12.9185 21.5717 13.25V19.0717H27.3933C27.7249 19.0717 28.0428 19.2034 28.2772 19.4378C28.5116 19.6722 28.6433 19.9901 28.6433 20.3217C28.6433 20.6532 28.5116 20.9711 28.2772 21.2055C28.0428 21.44 27.7249 21.5717 27.3933 21.5717H21.5717V27.3933C21.5717 27.7249 21.44 28.0428 21.2055 28.2772C20.9711 28.5116 20.6532 28.6433 20.3217 28.6433C19.9901 28.6433 19.6722 28.5116 19.4378 28.2772C19.2034 28.0428 19.0717 27.7249 19.0717 27.3933V21.5717H13.25C12.9185 21.5717 12.6005 21.44 12.3661 21.2055C12.1317 20.9711 12 20.6532 12 20.3217Z" fill="#842A4D"/>
<path fill-rule="evenodd" clip-rule="evenodd" d="M12.1951 6.28164C17.3825 5.70657 22.6176 5.70657 27.8051 6.28164C30.8501 6.62164 33.3084 9.01998 33.6651 12.0816C34.2817 17.3433 34.2817 22.6583 33.6651 27.92C33.3067 30.9816 30.8484 33.3783 27.8051 33.72C22.6176 34.2951 17.3825 34.2951 12.1951 33.72C9.15006 33.3783 6.69173 30.9816 6.33506 27.92C5.71969 22.6585 5.71969 17.3432 6.33506 12.0816C6.69173 9.01998 9.15173 6.62164 12.1951 6.28164ZM27.5284 8.76498C22.5248 8.21037 17.4753 8.21037 12.4717 8.76498C11.5455 8.86774 10.6809 9.27977 10.0177 9.9345C9.35449 10.5892 8.93138 11.4484 8.81673 12.3733C8.22398 17.4416 8.22398 22.5617 8.81673 27.63C8.93173 28.5545 9.35499 29.4134 10.0182 30.0678C10.6813 30.7222 11.5457 31.134 12.4717 31.2366C17.4334 31.79 22.5667 31.79 27.5284 31.2366C28.4541 31.1336 29.3181 30.7217 29.9809 30.0673C30.6438 29.4129 31.0668 28.5543 31.1817 27.63C31.7745 22.5617 31.7745 17.4416 31.1817 12.3733C31.0665 11.4493 30.6433 10.5911 29.9805 9.93702C29.3177 9.28297 28.4539 8.87127 27.5284 8.76831V8.76498Z" fill="#842A4D"/>
</svg>
