<?xml version="1.0" standalone="no"?>
<!DOCTYPE svg PUBLIC "-//W3C//DTD SVG 20010904//EN"
 "http://www.w3.org/TR/2001/REC-SVG-20010904/DTD/svg10.dtd">
<svg version="1.0" xmlns="http://www.w3.org/2000/svg"
 width="512.000000pt" height="512.000000pt" viewBox="0 0 512.000000 512.000000"
 preserveAspectRatio="xMidYMid meet">

<g transform="translate(0.000000,512.000000) scale(0.100000,-0.100000)"
fill="#000000" stroke="none">
<path d="M3295 5114 c-11 -2 -45 -9 -75 -15 -66 -14 -177 -66 -242 -113 -91
-68 -162 -171 -226 -328 l-12 -28 -1316 0 -1317 0 -34 -21 c-95 -59 -95 -192
1 -263 27 -21 32 -21 1351 -24 l1323 -2 17 -49 c53 -161 190 -310 349 -380
158 -69 354 -69 512 0 160 71 299 225 353 391 l12 37 514 3 c501 3 514 4 541
24 70 52 92 130 56 201 -42 82 -12 77 -591 83 l-514 5 -34 80 c-79 190 -237
330 -427 381 -54 15 -207 26 -241 18z m173 -326 c23 -6 62 -25 86 -42 96 -68
139 -151 140 -266 1 -66 -3 -84 -32 -142 -36 -73 -87 -124 -161 -160 -64 -32
-195 -32 -263 -1 -70 32 -131 94 -164 166 -57 126 -32 268 67 366 88 88 193
113 327 79z"/>
<path d="M1610 3184 c-36 -7 -103 -32 -150 -55 -142 -70 -271 -219 -319 -371
l-12 -37 -507 -3 c-562 -3 -544 -1 -594 -70 -32 -46 -32 -130 0 -176 50 -69
32 -67 594 -70 l507 -3 12 -37 c27 -86 85 -178 159 -253 196 -198 494 -245
745 -116 139 71 267 222 315 369 l11 38 1317 2 c1466 3 1352 -2 1404 70 32 46
32 130 0 176 -52 72 62 67 -1404 70 l-1317 2 -11 38 c-49 152 -178 301 -320
371 -139 68 -284 87 -430 55z m287 -334 c113 -56 177 -160 178 -290 0 -66 -5
-85 -33 -142 -18 -37 -49 -81 -69 -99 -133 -117 -330 -112 -453 11 -126 126
-127 333 -1 459 103 103 245 126 378 61z"/>
<path d="M3205 1261 c-84 -25 -130 -47 -195 -91 -110 -75 -205 -199 -245 -321
l-17 -49 -1323 -2 c-1319 -3 -1324 -3 -1351 -24 -96 -71 -96 -204 -1 -263 l34
-21 1317 0 1316 0 12 -27 c64 -158 135 -261 226 -329 61 -44 172 -98 242 -115
71 -17 229 -17 300 0 197 49 362 192 443 386 l34 80 514 5 c579 6 549 1 591
83 36 71 14 149 -56 201 -27 20 -40 21 -541 24 l-514 3 -12 37 c-67 206 -244
371 -460 427 -79 21 -238 18 -314 -4z m297 -319 c73 -36 124 -87 160 -160 29
-58 33 -76 32 -142 -3 -349 -475 -448 -623 -130 -65 141 -8 328 127 412 85 53
218 61 304 20z"/>
</g>
</svg>
