<svg width="40" height="40" viewBox="0 0 40 40" fill="none" xmlns="http://www.w3.org/2000/svg">
<path d="M16.6665 25L16.6665 20" stroke="#222222" stroke-width="1.2" stroke-linecap="round"/>
<path d="M23.3335 25L23.3335 20" stroke="#222222" stroke-width="1.2" stroke-linecap="round"/>
<path d="M5 11.6667H35H34C32.1144 11.6667 31.1716 11.6667 30.5858 12.2525C30 12.8383 30 13.7811 30 15.6667V29.3334C30 31.219 30 32.1618 29.4142 32.7476C28.8284 33.3334 27.8856 33.3334 26 33.3334H14C12.1144 33.3334 11.1716 33.3334 10.5858 32.7476C10 32.1618 10 31.219 10 29.3334V15.6667C10 13.7811 10 12.8383 9.41421 12.2525C8.82843 11.6667 7.88562 11.6667 6 11.6667H5Z" fill="#7E869E" fill-opacity="0.25" stroke="#222222" stroke-width="1.2" stroke-linecap="round"/>
<path d="M16.7804 5.61765C16.9703 5.44046 17.3888 5.28388 17.971 5.17221C18.5531 5.06053 19.2664 5 20.0002 5C20.7339 5 21.4472 5.06053 22.0294 5.17221C22.6115 5.28388 23.03 5.44046 23.2199 5.61765" stroke="#222222" stroke-width="1.2" stroke-linecap="round"/>
</svg>
